<?xml version="1.0" encoding="UTF-8" standalone="no"?>
<!DOCTYPE svg PUBLIC "-//W3C//DTD SVG 1.1//EN" "http://www.w3.org/Graphics/SVG/1.1/DTD/svg11.dtd">
<svg width="100%" height="100%" viewBox="0 0 90 112" version="1.1" xmlns="http://www.w3.org/2000/svg" xmlns:xlink="http://www.w3.org/1999/xlink" xml:space="preserve" xmlns:serif="http://www.serif.com/" style="fill-rule:evenodd;clip-rule:evenodd;stroke-linejoin:round;stroke-miterlimit:2;">
    <g transform="matrix(1,0,0,1,-1874.07,-1524.6)">
        <g>
            <g transform="matrix(2.62826,0,0,2.62826,669.83,-4048.97)">
                <path d="M458.191,2128.88L458.191,2147.98C458.191,2153.08 461.191,2156.38 466.091,2156.38C468.641,2156.38 471.541,2155.38 472.991,2153.98L472.991,2138.83L466.291,2138.83L466.291,2139.13L469.991,2139.13L469.991,2155.03C468.991,2155.68 467.641,2156.03 466.391,2156.03C463.191,2156.03 461.391,2153.93 461.391,2150.23L461.391,2127.13C461.391,2123.43 463.266,2121.49 466.762,2121.66C468.896,2121.76 470.252,2122.32 471.452,2123.76L472.246,2122.99C470.796,2121.29 468.591,2120.63 466.141,2120.63C461.091,2120.63 458.191,2123.83 458.191,2128.88Z" style="fill:white;fill-rule:nonzero;"/>
            </g>
            <g transform="matrix(2.62826,0,0,2.62826,651.169,-4030.04)">
                <path d="M489.641,2135.53L489.541,2135.53C489.291,2132.83 487.241,2130.83 484.841,2130.83C482.541,2130.83 480.991,2132.68 480.191,2135.33L480.091,2135.33L480.091,2137.38C480.091,2134.38 482.091,2131.38 483.991,2131.38C485.491,2131.38 486.641,2132.93 486.641,2135.03L486.641,2155.98L489.691,2155.98L489.691,2137.03C489.691,2133.88 491.841,2131.33 494.191,2131.33C495.791,2131.33 496.391,2132.43 496.391,2135.03L496.391,2155.98L499.441,2155.98L499.441,2135.93C499.441,2132.88 497.641,2130.83 494.941,2130.83C492.291,2130.83 490.341,2132.78 489.641,2135.53Z" style="fill:white;fill-rule:nonzero;"/>
            </g>
        </g>
    </g>
</svg>
