<svg xmlns="http://www.w3.org/2000/svg" viewBox="0 0 64 80" x="0px" y="0px"><title>DOWN BUTTON</title><g data-name="DOWN BUTTON"><path d="M32,63A31,31,0,1,1,63,32,31,31,0,0,1,32,63ZM32,3A29,29,0,1,0,61,32,29,29,0,0,0,32,3Z"/><path d="M32,46a1,1,0,0,1-.86-.49l-13-22a1,1,0,0,1,1.72-1L32,43,44.14,22.49a1,1,0,0,1,1.72,1l-13,22A1,1,0,0,1,32,46Z"/></g><text x="0" y="79" fill="#000000" font-size="5px" font-weight="bold" font-family="'Helvetica Neue', Helvetica, Arial-Unicode, Arial, Sans-serif">Created by Siawasee.Studio</text><text x="0" y="84" fill="#000000" font-size="5px" font-weight="bold" font-family="'Helvetica Neue', Helvetica, Arial-Unicode, Arial, Sans-serif">from the Noun Project</text></svg>