<?xml version="1.0" encoding="UTF-8" standalone="no"?>
<!DOCTYPE svg PUBLIC "-//W3C//DTD SVG 1.1//EN" "http://www.w3.org/Graphics/SVG/1.1/DTD/svg11.dtd">
<svg width="100%" height="100%" viewBox="0 0 39 114" version="1.1" xmlns="http://www.w3.org/2000/svg" xmlns:xlink="http://www.w3.org/1999/xlink" xml:space="preserve" xmlns:serif="http://www.serif.com/" style="fill-rule:evenodd;clip-rule:evenodd;stroke-linejoin:round;stroke-miterlimit:2;">
    <g transform="matrix(1,0,0,1,-1943.27,-2094.98)">
        <g>
            <g transform="matrix(2.62826,0,0,2.62826,739.031,-3478.59)">
                <path d="M458.191,2128.88L458.191,2147.98C458.191,2153.08 461.191,2156.38 466.091,2156.38C468.641,2156.38 471.541,2155.38 472.991,2153.98L472.991,2138.83L466.291,2138.83L466.291,2139.13L469.991,2139.13L469.991,2155.03C468.991,2155.68 467.641,2156.03 466.391,2156.03C463.191,2156.03 461.391,2153.93 461.391,2150.23L461.391,2127.13C461.391,2123.43 463.266,2121.49 466.762,2121.66C468.896,2121.76 470.252,2122.32 471.452,2123.76L472.246,2122.99C470.796,2121.29 468.591,2120.63 466.141,2120.63C461.091,2120.63 458.191,2123.83 458.191,2128.88Z" style="fill-rule:nonzero;"/>
            </g>
            <g transform="matrix(-2.62826,0,0,2.62826,3237.4,-3478.41)">
                <path d="M479.591,2142.64C479.591,2140.54 482.241,2140.44 482.491,2143.14L482.591,2143.14C483.291,2140.39 485.241,2138.44 487.891,2138.44C490.591,2138.44 492.391,2140.49 492.391,2143.54L492.391,2163.59L489.341,2163.59L489.341,2142.64C489.341,2140.04 488.741,2138.94 487.141,2138.94C484.791,2138.94 482.641,2141.49 482.641,2144.64L482.641,2163.59L479.591,2163.59L479.591,2142.64Z" style="fill:none;"/>
            </g>
        </g>
    </g>
</svg>
